# xmcd CD database file
#
# Track frame offsets:
#	150
#	14740
#	29243
#	44636
#	55983
#	71462
#	85483
#	99119
#	115616
#	128774
#	147666
#	164393
#	175018
#	190153
#
# Disc length: 2745 seconds
#
# Revision: 0
# Processed by: cddbd v1.5.2PL0 Copyright (c) Steve Scherf et al.
# Submitted via: CDex 1.51
#
DISCID=c80ab70e
DTITLE=Clelia Adams - Wildflowers
DYEAR=2008
DGENRE=Country
TTITLE0=Wildflowers
TTITLE1=I Love You A Thousand Ways
TTITLE2=When You Fall In Love
TTITLE3=If I Could Only Win Your Love
TTITLE4=My Mother's Wedding Band
TTITLE5=Do You Know
TTITLE6=One Little Song
TTITLE7=We Gotta Live With Stuff
TTITLE8=Honky Tonk Stardust Cowboy
TTITLE9=Love And Happiness
TTITLE10=Somewhere In The Middle
TTITLE11=Uncle Tony's Ute
TTITLE12=Honky Tonk Blues
TTITLE13=Wayfaring Stranger
EXTD=YEAR: 2008
EXTT0=
EXTT1=
EXTT2=
EXTT3=
EXTT4=
EXTT5=
EXTT6=
EXTT7=
EXTT8=
EXTT9=
EXTT10=
EXTT11=
EXTT12=
EXTT13=
PLAYORDER=
